<svg width="32" height="32" viewBox="0 0 32 32" fill="none" xmlns="http://www.w3.org/2000/svg">
<path d="M29.3332 4.66699H2.6665C1.56184 4.66699 0.666504 5.56233 0.666504 6.66699V25.3337C0.666504 26.4383 1.56184 27.3337 2.6665 27.3337H29.3332C30.4378 27.3337 31.3332 26.4383 31.3332 25.3337V6.66699C31.3332 5.56233 30.4378 4.66699 29.3332 4.66699Z" fill="#007AC6"/>
<path d="M7.02167 16.2863H8.57501L7.79834 14.3817L7.02167 16.2863ZM28.6663 12.667H24.687L23.7163 13.7143L22.8423 12.667H14.3983L13.6217 14.381L12.845 12.667H9.44767V13.429L9.05967 12.667H6.14767L3.33301 19.3337H6.73034L7.11834 18.2863H8.08901L8.47701 19.3337H12.2623V18.5717L12.5537 19.3337H14.495L14.7863 18.4763V19.3337H22.5517L23.5223 18.2863L24.3957 19.3337H28.375L25.8517 16.0003L28.6663 12.667ZM16.9217 18.381H15.8537V14.667L14.2037 18.381H13.233L11.583 14.667V18.381H9.35034L8.96234 17.3337H6.63301L6.24501 18.381H4.98301L7.02101 13.619H8.67101L10.515 18.095V13.619H12.359L13.815 16.857L15.1737 13.619H17.0177V18.381H16.9217ZM26.531 18.381H25.075L23.813 16.7617L22.357 18.381H17.989V13.619H22.4537L23.8123 15.143L25.2683 13.619H26.627L24.4923 16.0003L26.531 18.381ZM19.057 14.5717V15.429H21.4837V16.3817H19.057V17.3337H21.775L23.037 15.905L21.8723 14.5717H19.057Z" fill="white"/>
</svg>
