<svg width="16" height="10" viewBox="0 0 16 10" fill="none" xmlns="http://www.w3.org/2000/svg">
<path d="M8 0.295898C3.582 0.295898 0 5.04883 0 5.04883C0 5.04883 3.582 9.80188 8 9.80188C12.418 9.80188 16 5.04883 16 5.04883C16 5.04883 12.418 0.295898 8 0.295898ZM8 8.75989C7.26602 8.76088 6.54826 8.54414 5.9375 8.13708C5.32674 7.73003 4.85042 7.15085 4.56885 6.47302C4.28728 5.7952 4.21313 5.0491 4.35571 4.3291C4.4983 3.6091 4.85122 2.94758 5.36987 2.42822C5.88853 1.90887 6.5496 1.55506 7.26941 1.4115C7.98921 1.26794 8.73537 1.34117 9.41357 1.62183C10.0918 1.90248 10.6715 2.37794 11.0794 2.98816C11.4873 3.59837 11.705 4.31582 11.705 5.0498C11.7055 6.03305 11.3155 6.97627 10.6207 7.672C9.92593 8.36773 8.98325 8.75909 8 8.75989V8.75989Z" fill="#757575"/>
<path d="M8.00001 6.96681C9.05874 6.96681 9.91701 6.10854 9.91701 5.04981C9.91701 3.99108 9.05874 3.13281 8.00001 3.13281C6.94128 3.13281 6.08301 3.99108 6.08301 5.04981C6.08301 6.10854 6.94128 6.96681 8.00001 6.96681Z" fill="#757575"/>
</svg>
