<svg width="32" height="32" viewBox="0 0 32 32" fill="none" xmlns="http://www.w3.org/2000/svg">
<path d="M29.3332 4.66699H2.6665C1.56193 4.66699 0.666504 5.56242 0.666504 6.66699V25.3337C0.666504 26.4382 1.56193 27.3337 2.6665 27.3337H29.3332C30.4377 27.3337 31.3332 26.4382 31.3332 25.3337V6.66699C31.3332 5.56242 30.4377 4.66699 29.3332 4.66699Z" fill="#243747"/>
<path d="M12.6663 21.3337C15.6119 21.3337 17.9997 18.9458 17.9997 16.0003C17.9997 13.0548 15.6119 10.667 12.6663 10.667C9.72082 10.667 7.33301 13.0548 7.33301 16.0003C7.33301 18.9458 9.72082 21.3337 12.6663 21.3337Z" fill="#E61C24"/>
<path d="M19.2899 21.3337C22.2354 21.3337 24.6232 18.9458 24.6232 16.0003C24.6232 13.0548 22.2354 10.667 19.2899 10.667C16.3444 10.667 13.9565 13.0548 13.9565 16.0003C13.9565 18.9458 16.3444 21.3337 19.2899 21.3337Z" fill="#F99F1B"/>
<path d="M15.9785 11.8242C15.3482 12.3225 14.8388 12.9571 14.4886 13.6803C14.1385 14.4036 13.9565 15.1967 13.9565 16.0002C13.9565 16.8038 14.1385 17.5969 14.4886 18.3201C14.8388 19.0433 15.3482 19.6779 15.9785 20.1762C16.6089 19.6779 17.1182 19.0433 17.4684 18.3201C17.8186 17.5969 18.0005 16.8038 18.0005 16.0002C18.0005 15.1967 17.8186 14.4036 17.4684 13.6803C17.1182 12.9571 16.6089 12.3225 15.9785 11.8242Z" fill="#F26622"/>
</svg>
