<svg width="16" height="12" viewBox="0 0 16 12" fill="none" xmlns="http://www.w3.org/2000/svg">
<path d="M8 1.2959C3.582 1.2959 0 6.04883 0 6.04883C0 6.04883 3.582 10.8019 8 10.8019C12.418 10.8019 16 6.04883 16 6.04883C16 6.04883 12.418 1.2959 8 1.2959ZM8 9.75989C7.26602 9.76088 6.54826 9.54414 5.9375 9.13708C5.32674 8.73003 4.85042 8.15085 4.56885 7.47302C4.28728 6.7952 4.21313 6.0491 4.35571 5.3291C4.4983 4.6091 4.85122 3.94758 5.36987 3.42822C5.88853 2.90887 6.5496 2.55506 7.26941 2.4115C7.98921 2.26794 8.73537 2.34117 9.41357 2.62183C10.0918 2.90248 10.6715 3.37794 11.0794 3.98816C11.4873 4.59837 11.705 5.31582 11.705 6.0498C11.7055 7.03305 11.3155 7.97627 10.6207 8.672C9.92593 9.36773 8.98325 9.75909 8 9.75989Z" fill="#757575"/>
<path d="M8.00001 7.96681C9.05874 7.96681 9.91701 7.10854 9.91701 6.04981C9.91701 4.99108 9.05874 4.13281 8.00001 4.13281C6.94128 4.13281 6.08301 4.99108 6.08301 6.04981C6.08301 7.10854 6.94128 7.96681 8.00001 7.96681Z" fill="#757575"/>
<path d="M2.61232 0.676621C2.71128 0.578033 2.84528 0.522679 2.98497 0.522679C3.12465 0.522679 3.25865 0.578033 3.35761 0.67662L13.3886 10.6808C13.4375 10.7295 13.4763 10.7873 13.5027 10.851C13.5292 10.9147 13.5428 10.983 13.5428 11.052C13.5428 11.121 13.5292 11.1893 13.5027 11.253C13.4763 11.3167 13.4375 11.3745 13.3886 11.4232C13.2897 11.5218 13.1557 11.5772 13.016 11.5772C12.8763 11.5772 12.7423 11.5218 12.6433 11.4232L2.61232 1.41908C2.56345 1.3704 2.52467 1.31254 2.49822 1.24884C2.47176 1.18513 2.45814 1.11683 2.45814 1.04785C2.45814 0.97887 2.47176 0.910568 2.49822 0.846863C2.52467 0.783158 2.56345 0.725304 2.61232 0.676621Z" fill="#757575"/>
</svg>
