<svg width="32" height="32" viewBox="0 0 32 32" fill="none" xmlns="http://www.w3.org/2000/svg">
<path d="M29.3337 4.66602H2.66699C1.56242 4.66602 0.666992 5.56145 0.666992 6.66602V25.3327C0.666992 26.4373 1.56242 27.3327 2.66699 27.3327H29.3337C30.4382 27.3327 31.3337 26.4373 31.3337 25.3327V6.66602C31.3337 5.56145 30.4382 4.66602 29.3337 4.66602Z" fill="#1A1876"/>
<path d="M12.8252 19.1985H14.5645L15.6532 12.8145H13.9132L12.8252 19.1985Z" fill="white"/>
<path d="M19.1617 15.3789C18.5537 15.0835 18.181 14.8862 18.185 14.5875C18.185 14.3209 18.5004 14.0382 19.185 14.0382C19.6895 14.0256 20.1896 14.1346 20.6431 14.3562L20.8791 12.9729C20.3789 12.7924 19.8507 12.7021 19.319 12.7062C17.5997 12.7062 16.3857 13.5729 16.3784 14.8128C16.369 15.7302 17.245 16.2422 17.903 16.5462C18.5804 16.8588 18.8084 17.0582 18.805 17.3375C18.8004 17.7655 18.2644 17.9615 17.7637 17.9615C17.116 17.9766 16.4752 17.8264 15.9017 17.5248L15.6577 18.9535C16.278 19.1827 16.9345 19.2981 17.5957 19.2942C19.425 19.2942 20.6124 18.4382 20.6257 17.1135C20.629 16.3868 20.1657 15.8342 19.1617 15.3789Z" fill="white"/>
<path d="M25.339 12.8215H23.9944C23.8054 12.7973 23.6137 12.836 23.449 12.9317C23.2843 13.0274 23.1556 13.1747 23.083 13.3508L20.499 19.1995H22.3264C22.3264 19.1995 22.625 18.4128 22.6924 18.2401H24.921C24.973 18.4641 25.133 19.1968 25.133 19.1968H26.7477L25.339 12.8215ZM23.1937 16.9368C23.2657 16.7521 23.9757 14.9288 24.1177 14.5428C24.3524 15.6428 24.1237 14.5755 24.6377 16.9368H23.1937Z" fill="white"/>
<path d="M11.3666 12.8204L9.66257 17.1738L9.48124 16.2891L8.87124 13.3558C8.82678 13.1858 8.72242 13.0377 8.57738 12.9386C8.43234 12.8395 8.25639 12.7961 8.08191 12.8164H5.27591L5.25391 12.9498C5.8919 13.1003 6.50675 13.336 7.08191 13.6504L8.62857 19.1951H10.4699L13.2092 12.8231L11.3666 12.8204Z" fill="white"/>
</svg>
